<?xml version="1.0" encoding="UTF-8" standalone="no"?>
<!-- Created with Inkscape (http://www.inkscape.org/) -->

<svg
   xmlns:dc="http://purl.org/dc/elements/1.1/"
   xmlns:cc="http://creativecommons.org/ns#"
   xmlns:rdf="http://www.w3.org/1999/02/22-rdf-syntax-ns#"
   xmlns:svg="http://www.w3.org/2000/svg"
   xmlns="http://www.w3.org/2000/svg"
   xmlns:xlink="http://www.w3.org/1999/xlink"
   xmlns:sodipodi="http://sodipodi.sourceforge.net/DTD/sodipodi-0.dtd"
   xmlns:inkscape="http://www.inkscape.org/namespaces/inkscape"
   width="400"
   height="175"
   viewBox="0 0 105.83334 46.302082"
   version="1.1"
   id="svg8"
   sodipodi:docname="Blue.svg"
   inkscape:version="0.92.4 (5da689c313, 2019-01-14)">
  <defs
     id="defs2">
    <linearGradient
       inkscape:collect="always"
       xlink:href="#linearGradient921"
       id="linearGradient1548"
       gradientUnits="userSpaceOnUse"
       gradientTransform="matrix(0.32581538,0,0,0.32581538,12.947981,207.28364)"
       x1="235.5334"
       y1="241.42812"
       x2="253.23813"
       y2="127.11079" />
    <linearGradient
       id="linearGradient921"
       inkscape:collect="always">
      <stop
         id="stop917"
         offset="0"
         style="stop-color:#000730;stop-opacity:1" />
      <stop
         id="stop919"
         offset="1"
         style="stop-color:#282e4d;stop-opacity:0.30980393" />
    </linearGradient>
    <linearGradient
       inkscape:collect="always"
       xlink:href="#linearGradient935"
       id="linearGradient937"
       x1="143.8952"
       y1="245.90645"
       x2="137.44601"
       y2="83.664612"
       gradientUnits="userSpaceOnUse"
       gradientTransform="matrix(0.37641083,0,0,0.25250259,-2.2109941,227.00127)" />
    <linearGradient
       inkscape:collect="always"
       id="linearGradient935">
      <stop
         style="stop-color:#0044aa;stop-opacity:1"
         offset="0"
         id="stop931" />
      <stop
         style="stop-color:#2ad4ff;stop-opacity:1"
         offset="1"
         id="stop933" />
    </linearGradient>
  </defs>
  <sodipodi:namedview
     id="base"
     pagecolor="#ffffff"
     bordercolor="#666666"
     borderopacity="1.0"
     inkscape:pageopacity="0.0"
     inkscape:pageshadow="2"
     inkscape:zoom="1.9357084"
     inkscape:cx="171.19247"
     inkscape:cy="55.928683"
     inkscape:document-units="mm"
     inkscape:current-layer="layer1"
     showgrid="false"
     height="150mm"
     inkscape:window-width="1920"
     inkscape:window-height="1001"
     inkscape:window-x="-9"
     inkscape:window-y="-9"
     inkscape:window-maximized="1"
     units="px" />
  <metadata
     id="metadata5">
    <rdf:RDF>
      <cc:Work
         rdf:about="">
        <dc:format>image/svg+xml</dc:format>
        <dc:type
           rdf:resource="http://purl.org/dc/dcmitype/StillImage" />
        <dc:title></dc:title>
      </cc:Work>
    </rdf:RDF>
  </metadata>
  <g
     inkscape:label="Layer 1"
     inkscape:groupmode="layer"
     id="layer1"
     transform="translate(0,-250.69792)">
    <path
       style="opacity:1;fill:url(#linearGradient937);fill-opacity:1;fill-rule:nonzero;stroke:#ffffff;stroke-width:0;stroke-linecap:round;stroke-linejoin:round;stroke-miterlimit:4;stroke-dasharray:none;stroke-opacity:1;paint-order:stroke fill markers"
       d="m -2.5628721,248.64411 v 49.17362 H 110.57466 v -49.17362 z"
       id="rect929"
       inkscape:connector-curvature="0" />
    <path
       style="opacity:1;fill:#0b1831;fill-opacity:0.01766004;fill-rule:nonzero;stroke:none;stroke-width:0.31447244;stroke-linecap:round;stroke-linejoin:round;stroke-miterlimit:4;stroke-dasharray:none;stroke-opacity:1;paint-order:stroke fill markers"
       d="m 110.00706,254.24991 c -12.410561,1.28222 -24.857812,2.36433 -37.14906,4.57225 -15.108811,2.51622 -30.2541,5.01694 -45.561307,5.93624 -9.926404,0.70061 -19.8902098,0.91772 -29.8323529,0.86903 0.00599,2.02813 -0.011706,4.06532 0.00877,6.08787 7.6052379,0.71168 15.0222859,2.65403 22.2476879,5.07091 7.376551,2.45119 14.700987,5.18666 22.39029,6.51336 6.921766,1.24428 13.946281,2.07796 20.984757,2.11387 10.840263,-0.22278 21.456795,-2.64258 32.139843,-4.23096 5.045602,-0.71092 10.150592,-0.98951 15.237122,-0.99432 -0.007,-8.66329 0.0169,-17.34054 -0.008,-25.99513 -0.15243,0.019 -0.30487,0.0379 -0.4573,0.0569 z"
       id="path892"
       inkscape:connector-curvature="0" />
    <path
       style="opacity:1;fill:url(#linearGradient1548);fill-opacity:1;fill-rule:nonzero;stroke:#ffffff;stroke-width:0;stroke-linecap:round;stroke-linejoin:round;stroke-miterlimit:4;stroke-dasharray:none;stroke-opacity:1;paint-order:stroke fill markers"
       d="m 101.07556,252.75043 c -0.16855,0.003 -0.33578,0.11154 -0.37395,0.34684 -0.0183,0.10338 -0.0398,0.2063 -0.0609,0.30913 -0.25457,1.40367 -0.50455,2.8077 -0.73544,4.16008 -0.0259,-0.004 -0.05172,-0.008 -0.07762,-0.0113 -0.168357,-0.0234 -0.336993,-0.0453 -0.505617,-0.0675 -1.361053,-0.13371 -2.528288,-0.1718 -4.064112,-0.34384 -0.07929,-0.001 -0.158604,-3.3e-4 -0.237906,-3.3e-4 h -0.178807 -0.130991 v -3.2e-4 c -0.481501,0 -0.670982,0.44519 -0.569596,0.79672 -0.05182,0.8968 -0.170356,1.7744 -0.244976,2.66462 -0.06558,0.11861 0.05784,0.15448 0.227296,0.16045 0.139799,-0.7639 0.282319,-1.52736 0.465714,-2.27652 -0.02349,0.39752 -0.05886,0.79012 -0.08268,1.18751 -0.02586,0.0654 0.02285,0.0853 0.08974,0.0886 0.06186,-0.4727 0.125951,-0.94462 0.21181,-1.40589 h 0.02104 c 0.0064,0.52447 -0.01208,1.04479 -0.0071,1.56904 -0.04148,0.0894 0.0548,0.10585 0.184024,0.0973 0.0467,-0.49481 0.0951,-0.9896 0.166354,-1.4793 0.0073,0.62256 -0.01167,1.23987 -0.0066,1.862 -0.04147,0.10426 0.0548,0.12344 0.184031,0.11348 0.05824,-0.72001 0.118807,-1.43997 0.223762,-2.14839 0.07112,0.004 0.142328,0.007 0.213327,0.0118 1.269434,0.0907 2.531532,0.19537 3.773503,0.36788 0.04847,0.007 0.09671,0.014 0.145137,0.0209 -0.07161,0.44292 -0.142257,0.88598 -0.211645,1.32927 -0.245439,1.57308 -0.470796,3.13074 -0.681394,4.59515 -0.0143,0.10055 -0.02917,0.20102 -0.0436,0.30155 -0.0088,-0.001 -0.0175,-0.003 -0.02627,-0.004 -0.482209,-0.0625 -0.956046,-0.12289 -1.430809,-0.14376 -0.04629,-0.002 -0.09252,-0.003 -0.138903,-0.003 v 3.3e-4 c -0.795511,0 -0.795511,1.09743 0,1.09743 0.380483,0.0162 0.904511,0.076 1.270857,0.12553 0.0552,0.008 0.1101,0.0157 0.165169,0.0236 -0.107405,0.73199 -0.218988,1.46408 -0.322426,2.14318 -0.0984,-0.10231 -0.208076,-0.0247 -0.125439,0.16332 0.02439,0.0554 0.05013,0.11035 0.0756,0.16534 -0.04369,0.28596 -0.08649,0.57206 -0.130317,0.85802 -0.114538,0.74396 -0.231828,1.48759 -0.352731,2.23055 -0.156109,0.95399 -0.289592,1.77871 -0.434231,2.63819 l -7.295633,-1.40471 c -0.563189,-0.10842 -1.104013,0.25778 -1.21243,0.82097 -0.365446,2.03263 -0.380457,1.9774 -0.876533,4.55354 -3.409755,-0.55145 -6.800799,-1.14366 -10.150675,-1.82058 -7.527125,-1.8972 -5.277438,-1.27589 -11.536314,-2.79107 -0.165376,0.15629 -0.07908,0.38355 -0.130321,0.56521 -0.02432,1.81878 0.375127,3.90635 0.959539,5.81752 1.280105,3.28378 1.833297,4.77118 3.976223,6.40478 0.539645,0.94262 0.941204,1.43385 1.454037,1.88693 0.521785,-0.0792 1.036741,-0.31334 1.516511,-0.66204 0.447326,-0.34807 1.049222,-0.0134 1.441747,-0.21568 0.699195,-0.3993 1.520674,-0.22976 2.263901,-0.215 1.785855,0.66439 3.519227,-0.63264 5.304152,-0.62971 1.003748,0.0458 1.991744,0.20517 2.976781,-0.12493 1.235625,-0.0566 2.452478,-0.34322 3.678539,-0.53525 0.777254,0.12932 1.48462,-0.35164 2.221471,-0.57363 1.225014,0.26122 2.468212,0.33939 3.70683,0.43995 0.806931,0.14846 1.759769,-0.23744 2.4582,0.47244 0.997921,-0.45096 2.010631,0.16408 3.019201,0.0542 0.47377,-0.22228 1.08248,-0.95568 1.53587,-0.23723 0.45039,1.02314 1.40533,0.62415 2.07297,1.11309 0.57733,0.58725 1.26806,0.19178 1.90999,0.31939 0.86343,0.0683 1.82307,0.98889 2.61798,0.11282 0.4559,-0.54219 0.45988,0.52331 0.6627,0.83258 0.10462,0.50613 0.58301,0.36998 0.66,0.83326 v -7.41803 c -0.48147,-0.14041 -1.06839,-0.18259 -1.59108,-0.28303 -0.87444,-0.13257 -1.74602,-0.27139 -2.61597,-0.41369 l 0.76289,-3.96325 c 0.10842,-0.5632 -0.2576,-1.10384 -0.82081,-1.21226 l -3.25694,-0.62701 c -0.0411,-0.0533 -0.0851,-0.11232 -0.12105,-0.16031 0.0126,-0.007 0.0251,-0.0132 0.0375,-0.02 0.13268,-0.0776 0.28645,-0.14464 0.40479,-0.21673 0.0757,0.10271 0.1497,0.19878 0.22174,0.29279 0.58642,0.81763 0.90395,0.79429 0.11533,-0.18991 -0.14753,-0.19167 -0.30398,-0.40361 -0.42799,-0.58206 -0.34406,-0.50252 -0.68374,-1.01207 -0.99793,-1.54681 -0.23081,-0.40015 -0.31949,-0.54912 -0.54855,-0.96897 -0.10532,-0.19303 -0.20879,-0.3873 -0.31149,-0.58206 -0.32973,-0.62528 -0.65031,-1.25647 -0.95516,-1.89533 -0.0924,-0.19488 -0.18601,-0.38931 -0.27747,-0.58459 -0.0795,-0.16972 -0.15694,-0.34039 -0.235542,-0.51049 -0.444711,-0.96239 -0.01276,-0.0284 -0.322261,-0.69251 -0.04518,-0.0967 -0.05205,-0.113 -0.08873,-0.19497 -0.0444,-0.10099 -0.10553,-0.14543 -0.151701,-0.14412 v 0 c -0.05936,0.002 -0.09412,0.0789 -0.03704,0.20878 0.06908,0.15682 0.143842,0.31157 0.216184,0.46705 0.0082,0.0174 0.01622,0.0346 0.02424,0.052 -0.151821,-0.002 -0.31157,0.11773 -0.452585,0.19382 -0.0011,3.2e-4 -0.0015,10e-4 -0.0026,10e-4 -0.01107,-0.0236 -0.03354,-0.0717 -0.05169,-0.11061 0.05067,-0.33382 0.102376,-0.66748 0.152039,-1.00147 0.05094,-0.33927 0.101323,-0.6786 0.15154,-1.01796 0.0047,3.3e-4 0.0093,0.001 0.01396,0.002 0.44937,0.0512 0.890346,0.0931 1.323556,0.14614 -3e-5,3.2e-4 0,7.5e-4 0,0.001 -0.01,0.13142 -0.0161,0.25434 -0.0222,0.37647 -0.006,0.11836 0.0826,0.17615 0.16616,0.16989 v 0.28622 c 0,0.10402 0.0702,0.15775 0.14362,0.16248 -0.003,0.0654 -0.005,0.12579 -0.008,0.18639 -0.009,0.21778 0.29939,0.22972 0.30795,0.012 0.0191,-0.41741 0.0306,-0.85826 0.0688,-1.23954 0.009,-0.005 0.0179,-0.01 0.0266,-0.0152 v 2.09368 0.13503 c 0,0.21795 0.30829,0.21795 0.30829,0 v -2.67034 -0.0926 c 0,-0.0443 -0.0132,-0.0791 -0.0335,-0.10541 -0.046,-0.1743 -0.19098,-0.31977 -0.45612,-0.3524 -0.56706,-0.0729 -1.12776,-0.12557 -1.679836,-0.18877 0.01393,-0.0968 0.02831,-0.19358 0.0421,-0.29044 0.112502,-0.78257 0.226038,-1.56497 0.340614,-2.34724 0.110532,-0.74648 0.222192,-1.49299 0.339262,-2.23847 0.0393,-0.25086 0.0797,-0.50139 0.11971,-0.75211 0.0601,0.0763 0.12161,0.15155 0.18371,0.22629 0.14933,0.17838 0.30812,0.34858 0.4652,0.52009 0.17458,0.19191 0.35443,0.37882 0.53742,0.56269 0.2186,0.21419 0.45203,0.4124 0.68578,0.60967 0.27418,0.23188 0.55777,0.45207 0.84287,0.67028 0.29593,0.22589 0.59574,0.44658 0.89874,0.66287 0.31532,0.22111 0.63485,0.43623 0.95398,0.65176 0.0528,0.0361 0.10613,0.0713 0.15928,0.10674 -0.006,0.0481 -0.0115,0.0961 -0.0173,0.14413 0.12045,0.0765 0.22222,0.10693 0.25525,0.0121 0.21621,0.13978 0.43457,0.27635 0.65361,0.41166 0.71901,0.44744 1.44754,0.84137 2.14991,1.19627 0.71569,0.35494 1.43234,0.66545 2.11877,0.94826 0.32765,0.13524 0.65718,0.26589 0.98749,0.39449 0.30115,0.11651 0.60387,0.22924 0.90684,0.34095 0.2801,0.10196 0.55997,0.20415 0.84033,0.30542 0.21231,0.0764 0.42541,0.15078 0.63896,0.2236 0.2063,0.0703 0.3058,-0.22146 0.0995,-0.29179 -0.21179,-0.0722 -0.423,-0.146 -0.63357,-0.22175 -0.27971,-0.10103 -0.55918,-0.20301 -0.83865,-0.30474 -0.30123,-0.11106 -0.60218,-0.22293 -0.90162,-0.33876 -0.32845,-0.12788 -0.6561,-0.25798 -0.98193,-0.39247 -0.72892,-0.29943 -1.44127,-0.61255 -2.09721,-0.93833 -0.74696,-0.37349 -1.46705,-0.77482 -2.12685,-1.1833 -0.25728,-0.15893 -0.51391,-0.31919 -0.76675,-0.48507 0.034,-0.18988 0.068,-0.37967 0.10085,-0.56977 0.22102,0.12012 0.44245,0.23959 0.66405,0.35863 0.63302,0.34198 1.25633,0.65863 1.85594,0.955 0.27845,0.13688 0.55916,0.26917 0.84101,0.39886 0.52397,0.23993 1.04492,0.44397 1.54714,0.63005 0.22516,0.0819 0.4506,0.16307 0.67584,0.2448 0.20457,0.074 0.41042,0.14468 0.61623,0.21518 0.18837,0.0648 0.37771,0.12641 0.56775,0.18605 0.17562,0.0549 0.35212,0.10677 0.52918,0.15675 0.0292,0.008 0.0584,0.016 0.0876,0.0239 0.21032,0.0571 0.29115,-0.24058 0.0808,-0.29767 -0.0282,-0.008 -0.0563,-0.0152 -0.0845,-0.0229 -0.1742,-0.0491 -0.34799,-0.10025 -0.52076,-0.15422 -0.18751,-0.0588 -0.37433,-0.11962 -0.56018,-0.18352 -0.20404,-0.0699 -0.40799,-0.13996 -0.61083,-0.21333 -0.22463,-0.0815 -0.44961,-0.16226 -0.67416,-0.24397 -0.24782,-0.0917 -0.49488,-0.18565 -0.74016,-0.28404 -0.56386,-0.22795 -1.11129,-0.48339 -1.61836,-0.73224 -0.63844,-0.31291 -1.26461,-0.63804 -1.84669,-0.95028 -0.25202,-0.13538 -0.50381,-0.2713 -0.75496,-0.40829 0.0516,-0.30166 0.10289,-0.60344 0.15405,-0.90516 0.37992,0.16521 0.76037,0.32933 1.14188,0.4908 1.3519,0.56555 2.56953,1.06809 3.83614,1.51768 0.35308,0.12338 0.70842,0.24054 1.06427,0.3556 0.31704,0.10222 0.63476,0.20205 0.95415,0.29667 0.28235,0.0829 0.56594,0.16189 0.84977,0.23959 0.21129,0.0578 0.42301,0.11378 0.63491,0.16921 0.21086,0.0552 0.28882,-0.2432 0.078,-0.29835 -0.21078,-0.0551 -0.42139,-0.11075 -0.63155,-0.1682 -0.28178,-0.0771 -0.56322,-0.15542 -0.84354,-0.23774 -0.31695,-0.0939 -0.63228,-0.19323 -0.94691,-0.29465 -0.35312,-0.11416 -0.70563,-0.23033 -1.05601,-0.35274 -0.82771,-0.29184 -1.64276,-0.60974 -2.39641,-0.92013 -0.47495,-0.19517 -0.94959,-0.39089 -1.42256,-0.59081 -0.40391,-0.17095 -0.80678,-0.34476 -1.20889,-0.51993 0.0409,-0.23976 0.0823,-0.47944 0.12459,-0.71894 -0.004,0.0413 -0.008,0.0825 -0.0116,0.12392 -0.0371,0.0671 0.0327,0.0874 0.12864,0.0908 0.0929,-0.50766 0.18777,-1.01506 0.32006,-1.50926 0.22788,-0.34575 0.11512,-0.9106 -0.42075,-0.94691 -0.11924,-0.008 -0.0596,-0.004 -0.17898,-0.0123 -1.46344,-0.093 -2.90874,-0.24413 -4.33635,-0.44247 -0.17116,-0.023 -0.34217,-0.0466 -0.51286,-0.0714 -0.0652,-0.009 -0.13056,-0.0189 -0.19582,-0.0283 0.20415,-1.17517 0.41199,-2.32522 0.60141,-3.44417 0.0392,-0.22413 0.0807,-0.448 0.12611,-0.67096 0.0233,-0.11336 0.047,-0.22658 0.0668,-0.34061 0.0491,-0.30254 -0.17018,-0.47392 -0.38691,-0.47025 z m -0.60781,6.1327 c 0.004,7.6e-4 0.008,0.001 0.0125,0.002 0.13981,0.18198 0.29045,0.35522 0.44382,0.52582 0.19365,0.21333 0.39722,0.41747 0.60327,0.61876 0.23961,0.23329 0.49135,0.45337 0.75042,0.66472 0.26911,0.21908 0.55246,0.41967 0.83764,0.61707 -0.0138,0.11498 -0.0276,0.23005 -0.0416,0.34499 -0.21237,-0.16432 -0.42348,-0.33034 -0.62852,-0.50376 -0.22695,-0.1915 -0.45348,-0.38391 -0.6659,-0.59165 -0.18,-0.18082 -0.35715,-0.36451 -0.52886,-0.55326 -0.15373,-0.16786 -0.30903,-0.3343 -0.45527,-0.50882 -0.12236,-0.1472 -0.24248,-0.29665 -0.3534,-0.45274 0.009,-0.0543 0.0171,-0.10868 0.0259,-0.16298 z m 0.93479,0.12982 c 0.0806,0.0108 0.16117,0.0219 0.24178,0.0328 0.18319,0.0249 0.36648,0.0486 0.55006,0.0716 0.1879,0.0236 0.37628,0.0451 0.56471,0.066 0.071,0.008 0.14214,0.0148 0.21317,0.0224 -0.0113,0.11281 -0.024,0.22527 -0.0335,0.33859 -0.014,0.0254 0.0125,0.0332 0.0488,0.0344 0.005,-0.0273 0.0106,-0.0545 0.0157,-0.0818 -0.012,0.13302 -0.026,0.26547 -0.0396,0.39803 -0.31971,-0.16323 -0.63682,-0.33144 -0.94776,-0.51117 -0.20676,-0.11976 -0.41179,-0.24252 -0.61336,-0.37075 z m -0.21719,0.22645 c 0.22184,0.14261 0.4478,0.2789 0.676,0.41116 0.35035,0.20254 0.70837,0.39072 1.06932,0.5733 -0.0121,0.12121 -0.024,0.24259 -0.0342,0.36436 -0.0371,0.0671 0.0329,0.0875 0.1288,0.0909 0.0227,-0.12411 0.0456,-0.24822 0.069,-0.3721 0.0428,0.0214 0.0859,0.0424 0.1288,0.0636 -0.0215,0.19802 -0.0439,0.39601 -0.067,0.59384 -0.23286,-0.16287 -0.46289,-0.32953 -0.68341,-0.50898 -0.25202,-0.20541 -0.49695,-0.41958 -0.73005,-0.64637 -0.19009,-0.18563 -0.37763,-0.374 -0.5573,-0.56977 z m 2.14065,0.003 c 0.002,1.7e-4 0.004,3.3e-4 0.006,7.5e-4 -0.0217,0.2671 -0.0474,0.53383 -0.0746,0.80043 -0.0339,-0.0169 -0.0676,-0.0342 -0.10152,-0.0512 0.0508,-0.25196 0.10599,-0.50243 0.17022,-0.74975 z m 0.32074,0.0306 c 0.0198,0.002 0.0396,0.004 0.0594,0.006 -0.0236,0.31597 -0.0555,0.62933 -0.0881,0.94271 -0.0435,-0.0213 -0.0869,-0.0428 -0.13032,-0.0641 0.0508,-0.29515 0.10264,-0.59014 0.15894,-0.88428 z m 0.44989,0.0919 c -0.0498,0.33435 -0.1107,0.66814 -0.17612,1.00163 -0.014,-0.007 -0.0279,-0.0135 -0.0419,-0.0202 0.0658,-0.32952 0.13667,-0.65728 0.21804,-0.98143 z m 0.81457,0.0153 c 0.0115,10e-4 0.023,0.002 0.0345,0.003 -0.0401,0.46403 -0.0897,0.9273 -0.14278,1.39007 -0.0443,-0.0198 -0.0886,-0.0398 -0.13285,-0.0598 0.0765,-0.44499 0.15466,-0.88969 0.24111,-1.33282 z m 0.33303,0.0246 c 0.002,1.7e-4 0.005,2.5e-4 0.007,3.2e-4 -0.0356,0.50271 -0.0845,1.00441 -0.13923,1.50539 -0.0402,-0.0178 -0.0804,-0.0357 -0.12055,-0.0535 0.0824,-0.48441 0.16305,-0.96919 0.25304,-1.45219 z m -0.77298,0.0394 c -0.0303,0.37723 -0.0668,0.7538 -0.1054,1.13027 -0.0683,-0.0314 -0.13658,-0.0627 -0.20474,-0.0945 0.10121,-0.3455 0.20062,-0.6912 0.31014,-1.03581 z m 1.00281,0.67415 c -0.0281,0.30441 -0.0585,0.60852 -0.0904,0.91257 -0.0219,-0.009 -0.043,-0.0189 -0.0633,-0.0279 0.0501,-0.29512 0.1004,-0.59009 0.15372,-0.88462 z m -2.04081,0.3556 c 0.051,0.0257 0.10364,0.0507 0.15136,0.0734 -0.0192,0.18862 -0.0378,0.37749 -0.0537,0.56707 -0.0515,0.0931 0.0453,0.12125 0.17831,0.12594 0.0355,-0.19402 0.0716,-0.3878 0.1086,-0.58138 0.0136,0.006 0.027,0.0131 0.0406,0.0195 -0.0327,0.16041 -0.066,0.32071 -0.0997,0.48103 0.12487,0.046 0.22509,0.0564 0.21265,-0.0492 0.0347,-0.11048 0.068,-0.2212 0.10119,-0.33185 0.0864,0.0401 0.17276,0.0803 0.25946,0.11987 -0.0277,0.25815 -0.0567,0.51609 -0.0867,0.774 -0.30539,-0.1855 -0.60663,-0.37765 -0.90229,-0.57835 -0.004,-0.003 -0.009,-0.006 -0.0135,-0.009 0.0349,-0.20348 0.0692,-0.40713 0.10371,-0.61067 z m 1.18263,0.55276 c 0.05,0.0224 0.0998,0.0452 0.14985,0.0675 -0.0248,0.20982 -0.0501,0.41952 -0.0756,0.6292 0.0945,0.06 0.17055,0.0738 0.16113,-0.0641 0.0296,-0.16278 0.058,-0.32572 0.0862,-0.48877 0.0459,0.0204 0.0919,0.0408 0.13789,0.0611 -0.0328,0.28742 -0.0665,0.57459 -0.10136,0.86172 -0.16447,-0.0924 -0.32859,-0.18515 -0.49147,-0.28033 0.0447,-0.26203 0.0888,-0.52423 0.13335,-0.78629 z m 0.65092,0.28943 c 0.0272,0.012 0.0546,0.0238 0.0818,0.0357 -0.0324,0.29853 -0.0658,0.59693 -0.10051,0.89522 -0.0435,-0.0241 -0.0868,-0.0488 -0.13032,-0.0731 v -0.003 c 0.0518,-0.28453 0.10055,-0.56967 0.14901,-0.85482 z m -1.99569,0.10051 c 0.28013,0.18768 0.56466,0.36845 0.85313,0.54299 0.0273,0.0163 0.0549,0.0324 0.0823,0.0487 -0.0178,0.15038 -0.036,0.30058 -0.0542,0.4509 -0.33595,-0.24367 -0.65091,-0.47248 -0.93697,-0.69352 0.007,-0.0171 0.01,-0.0416 0.008,-0.0753 0.0166,-0.0912 0.0321,-0.18249 0.0482,-0.27377 z m 1.15485,0.71995 c 0.23639,0.13687 0.47452,0.2707 0.71355,0.40291 0.0233,0.0129 0.0467,0.0254 0.07,0.0382 -0.022,0.18617 -0.0442,0.37221 -0.0667,0.55832 -0.009,-0.006 -0.0188,-0.0125 -0.0281,-0.0189 -0.25705,-0.17361 -0.51397,-0.34757 -0.76912,-0.52397 0.0273,-0.15203 0.0539,-0.30441 0.0803,-0.45662 z m -4.723958,6.25999 c 0.01679,0.0364 0.0335,0.0726 0.05035,0.10893 0.07051,0.15257 0.140202,0.30559 0.211133,0.45797 -0.620773,0.30879 -0.390839,0.33778 -0.607132,-0.13645 -0.09955,-0.23263 -0.150467,-0.17749 0.230807,-0.34891 0.01781,-0.008 0.03584,-0.0162 0.05388,-0.0241 0.01174,-0.005 0.0058,-0.003 0.0175,-0.007 0.02247,-0.01 0.03632,-0.0276 0.04344,-0.05 z m -0.607135,0.33758 c 0.02597,0.0562 0.05199,0.11252 0.07796,0.16871 0.05687,0.12308 0.113006,0.24632 0.169882,0.3694 -0.159192,0.0716 -0.314518,0.134 -0.461841,0.196 -0.0011,3.3e-4 -0.0015,7.5e-4 -0.0023,0.001 0.03493,-0.22804 0.06903,-0.45621 0.103886,-0.68425 0.01035,-0.005 0.02078,-0.009 0.03117,-0.0137 0.02341,-0.0105 0.04669,-0.0213 0.07004,-0.032 0.0038,-0.002 0.0075,-0.003 0.01126,-0.005 z m 1.017283,0.54485 c 0.0737,0.15489 0.13771,0.28913 0.20474,0.4295 0,1.8e-4 -0.001,1.8e-4 -0.001,3.3e-4 -0.13594,0.0571 -0.31078,0.15773 -0.440281,0.22698 l -0.0067,-0.0142 c -0.0653,-0.13774 -0.131209,-0.27529 -0.19649,-0.41302 0.154321,-0.0841 0.307671,-0.16321 0.439611,-0.22969 z m -0.617746,0.31687 c 0.0644,0.13587 0.129327,0.27162 0.193799,0.40745 0.003,0.006 0.0059,0.0123 0.0089,0.0185 -0.156263,0.0697 -0.317841,0.13336 -0.47106,0.19988 -0.06759,-0.14199 -0.135266,-0.28389 -0.202222,-0.42615 0.0034,-0.002 0.0065,-0.003 0.0099,-0.004 0.158811,-0.0678 0.308702,-0.12703 0.460659,-0.19532 z m -0.672134,0.23673 c 0.08915,0.18999 0.179902,0.37929 0.269898,0.56891 0.308239,0.64597 0.632423,1.2843 0.965772,1.91656 0.10383,0.19694 0.20837,0.39343 0.31485,0.58862 0.23412,0.42917 0.32272,0.57778 0.55848,0.98665 0.252,0.42924 0.52019,0.84246 0.79387,1.24896 l -3.649255,-0.70243 c 0.03192,-0.18972 0.06403,-0.37945 0.09547,-0.56926 0.228891,-1.39097 0.450074,-2.74296 0.650912,-4.03801 z m 1.65053,0.19716 c 0.0706,0.1442 0.14197,0.28806 0.214,0.43153 -0.15378,0.0735 -0.3009,0.15656 -0.44132,0.23029 -0.0721,-0.14425 -0.14349,-0.28888 -0.21417,-0.43389 0.14555,-0.0772 0.30352,-0.16671 0.44142,-0.22818 z m -0.620437,0.31367 v 1.7e-4 c 0.07031,0.14448 0.141444,0.28853 0.213327,0.43221 -0.155905,0.0668 -0.31035,0.12849 -0.462834,0.19611 -0.0034,0.002 -0.0064,0.004 -0.0094,0.006 -0.07177,-0.14434 -0.14275,-0.28912 -0.212988,-0.43423 0.166765,-0.0729 0.32709,-0.1361 0.471948,-0.20017 z m 0.995907,0.43692 c 0.069,0.1353 0.13873,0.27021 0.20878,0.40493 -0.003,0.001 -0.006,0.003 -0.009,0.004 -0.14673,0.0747 -0.28881,0.15523 -0.43288,0.22818 -0.0702,-0.13537 -0.13996,-0.271 -0.20911,-0.40695 0.14968,-0.076 0.29259,-0.16095 0.44198,-0.23018 z m -0.6218,0.31434 v 3.3e-4 c 0.0688,0.13537 0.1383,0.27048 0.20811,0.40526 -0.15262,0.0713 -0.29785,0.13849 -0.466023,0.2178 -0.07256,-0.14058 -0.144632,-0.28137 -0.216022,-0.42261 0.166585,-0.0747 0.319175,-0.13329 0.473785,-0.20085 z m 0.99642,0.40746 c 0.0903,0.17049 0.18522,0.34959 0.26454,0.49634 -0.003,10e-4 -0.006,0.003 -0.008,0.004 -0.12586,0.0639 -0.24828,0.13165 -0.37008,0.19649 -0.0213,0.0108 -0.0427,0.0215 -0.0641,0.0321 -0.0964,-0.1795 -0.17926,-0.33582 -0.264,-0.49702 0.15036,-0.0753 0.2941,-0.15923 0.44215,-0.23184 z m -0.6228,0.31519 c 0.0873,0.16669 0.18362,0.34803 0.26349,0.49669 -0.15349,0.0782 -0.30707,0.13429 -0.46569,0.22109 -0.0983,-0.18379 -0.18769,-0.35355 -0.27731,-0.52447 0.16052,-0.0498 0.3333,-0.13063 0.47951,-0.19329 z m 1.05905,0.49534 c 0.0818,0.14783 0.1476,0.26437 0.21787,0.38675 -0.001,1.7e-4 -0.001,3.2e-4 -0.002,7.5e-4 -0.14798,0.0746 -0.29052,0.15664 -0.43592,0.22931 -0.002,0.001 -0.004,0.002 -0.006,0.003 -0.068,-0.11873 -0.13349,-0.23486 -0.21769,-0.38775 0.15113,-0.0788 0.28486,-0.15043 0.41872,-0.22092 0.008,-0.004 0.0165,-0.008 0.0248,-0.0111 z m -0.62449,0.31587 v 1.7e-4 c 0.0844,0.15362 0.15075,0.27179 0.21652,0.38708 -0.005,0.003 -0.011,0.005 -0.0165,0.007 -0.14827,0.0798 -0.26476,0.11778 -0.44515,0.22409 -0.0685,-0.12053 -0.14002,-0.24894 -0.23539,-0.42344 0.15844,-0.0549 0.32551,-0.12764 0.48053,-0.19528 z m 1.02167,0.38152 c 0.0738,0.12855 0.15775,0.26835 0.22882,0.38439 -0.16075,0.0765 -0.30892,0.15956 -0.44583,0.23168 -0.0828,-0.13475 -0.15538,-0.25915 -0.2273,-0.38355 0.151,-0.0757 0.29519,-0.16037 0.44433,-0.23254 z m -0.62617,0.31653 v 3.3e-4 c 0.0758,0.13297 0.15222,0.26161 0.22663,0.38523 -0.16796,0.0715 -0.33592,0.14 -0.47864,0.20522 -0.0302,-0.0502 -0.0603,-0.10041 -0.0901,-0.15103 -0.0542,-0.0939 -0.0994,-0.17219 -0.1416,-0.24515 0.15974,-0.0515 0.32785,-0.12695 0.48355,-0.19464 z m 1.04524,0.37261 c 0.0793,0.1247 0.15973,0.2484 0.24077,0.37125 -0.14713,0.067 -0.2865,0.14728 -0.42648,0.22159 -0.007,0.003 -0.0134,0.007 -0.02,0.0103 -0.0811,-0.12295 -0.16148,-0.2469 -0.24076,-0.37176 0.14711,-0.0791 0.30775,-0.16689 0.44653,-0.23138 z m -0.62903,0.31923 c 0.0786,0.12464 0.15817,0.24819 0.23858,0.37091 -0.15831,0.0681 -0.31533,0.13087 -0.47041,0.19935 -0.004,0.002 -0.007,0.004 -0.0103,0.007 -0.0805,-0.12329 -0.16018,-0.24743 -0.23875,-0.37278 0.16052,-0.0714 0.32372,-0.13357 0.48087,-0.20409 z m 1.06696,0.34751 v 1.8e-4 c 0.0824,0.12227 0.16019,0.23632 0.23303,0.34226 -0.14535,0.0666 -0.28319,0.14608 -0.4216,0.21956 -0.008,0.004 -0.0167,0.008 -0.0249,0.0125 -0.006,-0.009 -0.0119,-0.017 -0.0178,-0.0256 -0.0714,-0.10423 -0.14237,-0.20885 -0.21315,-0.31385 0.14537,-0.0833 0.31132,-0.16004 0.44429,-0.23507 z m -0.62852,0.32462 v 1.7e-4 c 0.0758,0.11301 0.15209,0.22535 0.22865,0.33741 -0.15361,0.066 -0.29844,0.12468 -0.43284,0.18268 l -0.0741,-0.0143 c -0.0682,-0.10003 -0.13621,-0.20019 -0.20374,-0.30104 0.009,-0.004 0.018,-0.008 0.0269,-0.012 0.15275,-0.0661 0.30642,-0.12588 0.45494,-0.19302 z m 8.21341,15.32367 c -142.584363,9.56428 -71.292193,4.78214 0,0 z"
       id="path983-0"
       inkscape:connector-curvature="0"
       sodipodi:nodetypes="cccccccscccccccccccccccccccccccccccccccccccccccccccccccccccccccccccccccccccccccccccccccccccccccccccccccccccccccsccsccccccccccccccccccccccccccccccccccccccccccccccccccccccccccccccccccccccccccccccccccccccccccccccccccccccccccccccccccccccccccccccccccccccccccccccccccccccccccccccccccccccccccccccccccccccccccccccccccccccccccccccccccccccccccccccccccccccccccccccccccccccccccccccccccccccccccccccccccccccccccccccccccccccccccccccccccccccccccccccccccccccccccccccccccccccccccccccccc" />
    <path
       style="opacity:1;fill:#0b1831;fill-opacity:0.06666667;fill-rule:nonzero;stroke:none;stroke-width:26.09627342;stroke-linecap:round;stroke-linejoin:round;stroke-miterlimit:4;stroke-dasharray:none;stroke-opacity:0.30980392;paint-order:stroke fill markers"
       d="m -2.5268895,271.7153 c -0.2420883,2.23284 -0.033652,4.53165 -0.1032869,6.78972 v 19.31273 H 111.00103 v -17.54669 c -0.68441,-0.4653 -2.07579,-0.006 -3.02511,-0.11204 -6.60837,0.14547 -13.142732,0.94441 -19.48542,2.17664 -10.353628,1.83103 -21.07164,3.74029 -31.821207,2.7901 -10.004658,-0.71428 -19.859888,-2.58185 -28.77724,-5.74444 -8.462495,-2.91188 -16.992472,-5.98968 -26.4161994,-7.23863 -1.32090894,-0.1453 -2.681864,-0.44514 -4.0027431,-0.42739 z"
       id="path906-4"
       inkscape:connector-curvature="0" />
    <path
       style="opacity:1;fill:#001637;fill-opacity:1;fill-rule:nonzero;stroke:#240037;stroke-width:0;stroke-linecap:round;stroke-linejoin:round;stroke-miterlimit:4;stroke-dasharray:none;stroke-opacity:1;paint-order:stroke fill markers"
       d="m 15.580063,277.47977 c -1.238826,-0.004 -2.563303,0.20121 -3.848234,0.59639 -3.9836573,1.2286 -6.7044004,3.97643 -6.2170733,6.27896 l 1.9143931,-0.58919 2.6005432,7.83568 c -0.9849679,-0.0232 -1.9440902,0.73434 -2.9560576,0.52014 -1.1058645,-0.27896 -2.2282791,-0.16775 -3.2851199,0.36841 -1.319696,-0.8199 -3.74711613,0.0358 -4.28693745,-0.26201 -0.37582672,-0.33245 -0.97468735,0.15763 -1.25177045,-0.3017 -0.058697,-0.60351 -0.8006073,-0.72091 -0.7450354,0.026 -0.061792,1.95335 -0.07054,3.90911 -0.067644,5.86523 H 110.57466 c 3.05684,-24.99308 -10.861565,-8.80385 -37.994218,-12.95902 -0.858017,-0.0164 -1.806384,-0.20481 -2.613567,0.23906 -0.453154,0.22483 -1.148012,-0.14729 -1.664429,0.23964 -1.137701,0.79621 -2.446516,1.06098 -3.643751,0.38125 -0.689501,-0.47328 -1.418459,-0.16062 -2.037816,0.34507 -1.251702,0.78823 -2.599407,-0.12016 -3.886517,0.0893 -0.271683,-0.0133 -0.769621,0.48611 -0.916094,0.21708 -0.336079,-0.7465 -1.164408,-0.62128 -1.727993,-0.7061 -0.772022,0.14914 -1.484636,0.81742 -2.295372,0.5217 -0.889907,-0.23778 -1.79496,0.44536 -2.630084,-0.0875 -1.456093,-0.40202 -2.866218,0.6024 -4.311617,0.61779 -2.052655,0.4239 -4.131553,-0.32379 -6.1782,0.16592 -1.914863,0.3408 -3.891746,0.0782 -5.778965,0.68761 -1.662279,0.8817 -3.461658,1.86982 -5.248308,1.14784 -1.884975,-0.4162 -3.866495,-0.44819 -5.659604,0.57012 -0.04151,0.019 -0.0832,0.0371 -0.124788,0.0556 l -0.370482,-1.11632 -2.195458,0.67536 -2.831458,-8.53204 2.119265,-0.65222 c -0.63902,-1.38667 -2.52496,-2.22999 -5.005141,-2.23809 z m 0.907919,3.49895 2.831459,8.53204 -2.484115,0.76445 -2.831449,-8.53224 z m -4.462062,1.3727 2.831449,8.53223 -2.618804,0.80588 -2.8314593,-8.53204 z"
       id="path983"
       inkscape:connector-curvature="0"
       sodipodi:nodetypes="cccccccccccccccccccccccccccccccccccccccccccc" />
  </g>
</svg>
